<svg xmlns="http://www.w3.org/2000/svg" width="23.969" height="17.813" viewBox="0 0 23.969 17.813">
  <metadata><?xpacket begin="﻿" id="W5M0MpCehiHzreSzNTczkc9d"?>
<x:xmpmeta xmlns:x="adobe:ns:meta/" x:xmptk="Adobe XMP Core 5.6-c138 79.159824, 2016/09/14-01:09:01        ">
   <rdf:RDF xmlns:rdf="http://www.w3.org/1999/02/22-rdf-syntax-ns#">
      <rdf:Description rdf:about=""/>
   </rdf:RDF>
</x:xmpmeta>
                                                                                                    
                                                                                                    
                                                                                                    
                                                                                                    
                                                                                                    
                                                                                                    
                                                                                                    
                                                                                                    
                                                                                                    
                                                                                                    
                                                                                                    
                                                                                                    
                                                                                                    
                                                                                                    
                                                                                                    
                                                                                                    
                                                                                                    
                                                                                                    
                                                                                                    
                                                                                                    
                           
<?xpacket end="w"?></metadata>
<defs>
    <style>
      .cls-1 {
        fill: #333;
        fill-rule: evenodd;
      }
    </style>
  </defs>
  <path id="ic_Wi-Fi_копия_24" data-name="ic_Wi-Fi копия 24" class="cls-1" d="M363.962,471.875a16.874,16.874,0,0,0-23.742,0,0.433,0.433,0,0,0,0,.615,0.439,0.439,0,0,0,.619,0,16,16,0,0,1,22.5,0,0.439,0.439,0,0,0,.618,0A0.432,0.432,0,0,0,363.962,471.875ZM342.79,474.8a0.435,0.435,0,0,0,.307.742,0.436,0.436,0,0,0,.31-0.127,12.344,12.344,0,0,1,17.367,0,0.439,0.439,0,0,0,.619,0,0.435,0.435,0,0,0,0-.615A13.227,13.227,0,0,0,342.79,474.8Zm9.3,0.161a9.488,9.488,0,0,0-6.733,2.769,0.432,0.432,0,0,0,0,.614,0.436,0.436,0,0,0,.618,0,8.694,8.694,0,0,1,12.23,0,0.435,0.435,0,0,0,.617-0.614A9.484,9.484,0,0,0,352.091,474.964Zm-0.125,4.151a2.847,2.847,0,1,0,2.864,2.848A2.858,2.858,0,0,0,351.966,479.115Zm0,4.825a1.979,1.979,0,1,1,1.989-1.977A1.985,1.985,0,0,1,351.966,483.94Z" transform="translate(-340.125 -467)"/>
</svg>
