<svg xmlns="http://www.w3.org/2000/svg" width="24" height="23"><path d="M21.324 1.394a.426.426 0 0 0-.609 0l-4.469 4.522a.44.44 0 0 0 0 .618.431.431 0 0 0 .609 0l4.469-4.524a.441.441 0 0 0 0-.616zm1.215 1.211a.427.427 0 0 0-.61 0l-4.468 4.522a.441.441 0 0 0 0 .617.431.431 0 0 0 .609 0l4.469-4.523a.439.439 0 0 0 0-.616zm-4.216 7.636l5.547-5.614a.439.439 0 0 0 0-.617.427.427 0 0 0-.61 0l-5.546 5.613a2.268 2.268 0 0 1-2.6.453.426.426 0 0 0-.508.1l-1.885 2.149-8.145 9.289a.018.018 0 0 1-.007.008 1.088 1.088 0 0 1-.077.085 1.367 1.367 0 0 1-1.95 0 1.406 1.406 0 0 1 0-1.973c.025-.027.053-.052.084-.08h.008l5.092-4.576a.439.439 0 0 0 .036-.615.425.425 0 0 0-.608-.037L2.06 19a2.721 2.721 0 0 0-.133.123 2.289 2.289 0 0 0 0 3.208 2.224 2.224 0 0 0 3.17 0 1.806 1.806 0 0 0 .122-.134l6.207-7.078 6.207 7.079c.041.048.082.093.123.133a2.223 2.223 0 0 0 3.169 0 2.29 2.29 0 0 0 0-3.207 2.694 2.694 0 0 0-.133-.124l-7.143-6.417 1.4-1.594a3.127 3.127 0 0 0 3.274-.748zm1.9 9.416h.008c.032.028.059.053.085.08a1.408 1.408 0 0 1 0 1.973 1.368 1.368 0 0 1-1.951 0 1.086 1.086 0 0 1-.078-.084v-.008L12 14.463l1.075-1.226zM20.03.124a.426.426 0 0 0-.609 0l-5.547 5.614a3.217 3.217 0 0 0-.74 3.316l-1.708 1.533-1.64-1.475a4.426 4.426 0 0 0-.807-5.1 9.793 9.793 0 0 0-4.36-2.681 3.731 3.731 0 0 0-3.716.738 3.843 3.843 0 0 0-.729 3.762 9.957 9.957 0 0 0 2.649 4.412 4.293 4.293 0 0 0 5.041.816s1.6 1.829 1.625 1.854a.43.43 0 0 0 .322.145.422.422 0 0 0 .286-.109l3.837-3.447a.439.439 0 0 0 .1-.515 2.338 2.338 0 0 1 .447-2.632L20.027.742a.439.439 0 0 0 .003-.618zM9.847 12l-1.569-1.788a.426.426 0 0 0-.548-.081 3.443 3.443 0 0 1-4.3-.512 9.065 9.065 0 0 1-2.423-4.007 3.021 3.021 0 0 1 .5-2.933 2.925 2.925 0 0 1 2.9-.508 8.938 8.938 0 0 1 3.962 2.452 3.55 3.55 0 0 1 .5 4.35.44.44 0 0 0 .081.555l1.823 1.637z" fill="#42be56" fill-rule="evenodd"/></svg>