<svg xmlns="http://www.w3.org/2000/svg" width="26" height="17"><path data-name="Forma 1 копия 43" d="M25.62 17h-2.164a.366.366 0 0 1-.378-.353v-2.6H3.1v2.6a.367.367 0 0 1-.379.353H.378A.365.365 0 0 1 0 16.643V.349A.366.366 0 0 1 .375 0h2.343a.367.367 0 0 1 .379.353v4.842a1.817 1.817 0 0 1 .982-.285h4.684a1.687 1.687 0 0 1 1.738 1.625V7a1.543 1.543 0 0 1-.3.919h12.882V4.7a.366.366 0 0 1 .378-.354h2.164A.366.366 0 0 1 26 4.7v11.943a.366.366 0 0 1-.38.357zm-1.787-.706h1.409V5.055h-1.409V16.29zm-23.08 0h1.588V.7H.753v15.59zm2.344-2.958h19.981v-1.251H3.1v1.247zm0-1.953h19.981V8.626H3.1v2.753zm.982-3.459h4.684A.952.952 0 0 0 9.745 7v-.468a.953.953 0 0 0-.982-.919H4.079a.953.953 0 0 0-.982.919V7a.952.952 0 0 0 .982.92z" fill-rule="evenodd"/></svg>