<svg xmlns="http://www.w3.org/2000/svg" width="24" height="16.125"><path data-name="Shape 1 копия 82" d="M22.223 5.948h-.3V-.006H2.008v5.954h-.237A1.831 1.831 0 0 0 0 7.825v8.294h2.9v-2.047h18.2v2.047H24V7.825a1.831 1.831 0 0 0-1.777-1.877zM2.976 1.019h17.982v4.93h-1.039V3.183a1.166 1.166 0 0 0-1.13-1.195h-4.673a1.165 1.165 0 0 0-1.128 1.195v2.766h-1.949V3.214A1.165 1.165 0 0 0 9.91 2.019h-4.7a1.166 1.166 0 0 0-1.129 1.195v2.735h-1.1v-4.93zm15.975 2.164v2.765h-5V3.183a.165.165 0 0 1 .161-.169h4.673a.166.166 0 0 1 .166.169zm-8.879.031v2.734H5.045V3.214a.166.166 0 0 1 .161-.17h4.7a.167.167 0 0 1 .166.17zM23.031 15.1h-.968v-2.049H1.933V15.1H.965v-3.168h22.066V15.1zm0-4.193H.965V7.829a.832.832 0 0 1 .806-.852h20.452a.831.831 0 0 1 .807.852V10.9z" fill="#333" fill-rule="evenodd"/></svg>