<svg xmlns="http://www.w3.org/2000/svg" width="23.656" height="12.75"><path data-name="Forma 1 копия 66" d="M18.506 6.269a.129.129 0 0 0 .021 0c2.923 0 5.126-1.952 5.126-4.745a.4.4 0 0 0-.394-.409h-3.567c.012-.268.018-.447.018-.724a.4.4 0 0 0-.395-.408H2.938a.4.4 0 0 0-.393.408c0 3.964.972 6.757 3.105 8.644H.385a.4.4 0 0 0-.395.408c0 .618 2.827 1.792 2.855 1.8a22.625 22.625 0 0 0 8.188 1.513c7.329 0 10.744-2.879 10.886-2.99a.415.415 0 0 0 .137-.455.393.393 0 0 0-.374-.279h-5.266a8.278 8.278 0 0 0 2.09-2.763zm4.341-4.331a3.917 3.917 0 0 1-3.993 3.506 12.937 12.937 0 0 0 .787-3.506h3.206zM11.033 11.946a19.913 19.913 0 0 1-9.172-2.09h18.3a20.124 20.124 0 0 1-9.128 2.09zM6.979 9.04C4.587 7.495 3.423 4.807 3.337.804h15.58c-.086 4-1.437 6.691-3.83 8.236H6.979z" fill="#42be56" fill-rule="evenodd"/></svg>