<svg xmlns="http://www.w3.org/2000/svg" width="19" height="15"><path d="M0 4.585v8.155A2.288 2.288 0 0 0 2.317 15h14.362A2.289 2.289 0 0 0 19 12.74V4.585a2.178 2.178 0 0 0-2.207-2.145h-3.086l-.074-.313a2.8 2.8 0 0 0-2.76-2.131h-2.75a2.81 2.81 0 0 0-2.761 2.131l-.073.313H2.2A2.179 2.179 0 0 0 0 4.585zm5.669-1.221a.469.469 0 0 0 .461-.359l.16-.67A1.862 1.862 0 0 1 8.123.921h2.75a1.865 1.865 0 0 1 1.834 1.414l.158.67a.476.476 0 0 0 .462.359h3.463a1.24 1.24 0 0 1 1.256 1.221v8.155a1.351 1.351 0 0 1-1.369 1.332H2.317A1.351 1.351 0 0 1 .948 12.74V4.585a1.24 1.24 0 0 1 1.256-1.221h3.463zM3.215 4.718a.619.619 0 1 1-.637.619.628.628 0 0 1 .635-.619zm6.284 7.905a3.882 3.882 0 1 0-3.99-3.88 3.942 3.942 0 0 0 3.991 3.88zm0-6.838A2.958 2.958 0 1 1 6.46 8.743 3.006 3.006 0 0 1 9.5 5.785z" fill="#fff" fill-rule="evenodd"/></svg>