<svg xmlns="http://www.w3.org/2000/svg" width="24" height="19"><path data-name="ic_Safe копия 15" d="M24 18V1a.979.979 0 0 0-1-1H1a.979.979 0 0 0-1 1v17a.98.98 0 0 0 1 1h22a.979.979 0 0 0 1-1zM1 18V1h22v17H1zm1-2V3a.98.98 0 0 1 1-1h17a.98.98 0 0 1 1 1v13a.98.98 0 0 1-1 1H3a.98.98 0 0 1-1-1zm18.031 0V3H3v13h17.03zM4 6h1v1H4V6zm2 0h1v1H6V6zM4 8h1v1H4V8zm4 0h1v1H8V8zm-4 2h1v1H4v-1zm2 0h1v1H6v-1zm0 2h1v1H6v-1zm9.5-6A3.5 3.5 0 1 1 12 9.5 3.5 3.5 0 0 1 15.5 6zm0 1A2.5 2.5 0 1 1 13 9.5 2.5 2.5 0 0 1 15.5 7zm0 1A1.5 1.5 0 1 1 14 9.5 1.5 1.5 0 0 1 15.5 8zm0 1a.5.5 0 1 1-.5.5.5.5 0 0 1 .5-.5zm-1 1h-4a.5.5 0 1 1 0-1h4a.5.5 0 1 1 0 1zM8 6h1v1H8V6zM6 8h1v1H6V8zm2 2h1v1H8v-1zm11-5h3v1h-3V5zm0 8h3v1h-3v-1z" fill="#3587e0" fill-rule="evenodd"/></svg>