<svg xmlns="http://www.w3.org/2000/svg" width="19.969" height="24.031"><path data-name="ic_Shower копия 14" d="M12.508 24.028a.446.446 0 0 1-.5-.328V11.963a.553.553 0 0 1 1.01 0V23.7a.446.446 0 0 1-.51.328zm-12 0C0 24 0 23 0 23V6.98S0 0 6 0s6.994 4.242 7 5a5.512 5.512 0 0 1 4.98 5.6.322.322 0 0 1-.316.327H7.287a.321.321 0 0 1-.316-.327A5.348 5.348 0 0 1 12 5c-.162-1.02-1-4.03-6-4.03S1 7 1 7v16s.016 1.059-.494 1.028zM8.023 9.989h9a4.639 4.639 0 0 0-4.547-4.1 4.548 4.548 0 0 0-4.455 4.1zm11.528 13.8a.445.445 0 0 1-.572-.187l-3.037-11.5a.554.554 0 0 1 .978-.258l3.036 11.5a.445.445 0 0 1-.407.441zm-3.226.134a.448.448 0 0 1-.55-.244l-1.84-11.752a.555.555 0 0 1 1-.156l1.841 11.75a.449.449 0 0 1-.453.398zm-10.908-.134a.447.447 0 0 0 .573-.187l3.036-11.5a.554.554 0 0 0-.978-.258l-3.036 11.5a.445.445 0 0 0 .403.441zm3.225.134a.448.448 0 0 0 .55-.244l1.841-11.752a.556.556 0 0 0-1-.156l-1.84 11.75a.448.448 0 0 0 .447.398z" fill="#3587e0" fill-rule="evenodd"/></svg>