<svg xmlns="http://www.w3.org/2000/svg" width="24" height="17"><path data-name="Shape 1 копия 79" d="M3.408 10.541h.758v.787h-.758v-.787zm-1.515 0h.757v.787h-.757v-.787zm-.758-.787h.758v.787h-.758v-.787zm1.515 0h.758v.787H2.65v-.787zm.758 2.361v-.787H2.65v.787h-.757v-.787h-.758v.787h-.38v-.787h.38v-.786h-.38v-.788h.38v-.787h.758v.787h.757v-.787h.758v.787h.758v-.787h4.8V8.18H0v4.72h12.68v-.786H3.408zm8.944-3.935v.787h3.94V12.9H24V8.18H12.352zm10.888 3.935h-6.189V8.967h6.189v3.148zM0 4.718h.758v.787H0v-.787zm0-1.574h.758v.787H0v-.787zm0 3.147h.758v.786H0v-.786zm1.706-1.573h.758v.787H1.7v-.787zm0-3.148h.758v.787H1.7V1.57zm0 1.574h.758v.787H1.7v-.787zm0 3.147h.758v.786H1.7v-.786zm1.705-3.147h.758v.787h-.758v-.787zm0-1.574h.758v.787h-.758V1.57zm0-1.574h.758v.788h-.758V0zm0 6.3h.758v.786h-.758v-.786zm0-1.573h.758v.787h-.758v-.792zM6.2 4.451l.536-.557 12.089 12.551-.537.556z" fill-rule="evenodd"/></svg>