<svg xmlns="http://www.w3.org/2000/svg" width="23.219" height="23.969"><path data-name="Shape 1 копия 57" d="M22.841 18.489a.38.38 0 0 0-.377.385 1.229 1.229 0 1 1-2.456 0 .376.376 0 1 0-.752 0 1.229 1.229 0 1 1-2.457 0 .376.376 0 1 0-.752 0 1.229 1.229 0 1 1-2.457 0 .377.377 0 1 0-.753 0 1.229 1.229 0 1 1-2.457 0 .376.376 0 1 0-.752 0 1.229 1.229 0 1 1-2.457 0 .377.377 0 1 0-.753 0 1.229 1.229 0 1 1-2.457 0 .376.376 0 1 0-.752 0 1.229 1.229 0 1 1-2.456 0 .377.377 0 1 0-.753 0A2.007 2.007 0 0 0 1.98 20.9a1.964 1.964 0 0 0 1.6-.84 1.953 1.953 0 0 0 3.21 0 1.953 1.953 0 0 0 3.21 0 1.953 1.953 0 0 0 3.209 0 1.953 1.953 0 0 0 3.209 0 1.952 1.952 0 0 0 3.209 0 1.965 1.965 0 0 0 1.605.84 2.006 2.006 0 0 0 1.98-2.026.379.379 0 0 0-.371-.385zm0 3.079a.381.381 0 0 0-.377.385 1.229 1.229 0 1 1-2.456 0 .376.376 0 1 0-.752 0 1.229 1.229 0 1 1-2.457 0 .376.376 0 1 0-.752 0 1.229 1.229 0 1 1-2.457 0 .377.377 0 1 0-.753 0 1.229 1.229 0 1 1-2.457 0 .376.376 0 1 0-.752 0 1.229 1.229 0 1 1-2.457 0 .377.377 0 1 0-.753 0 1.229 1.229 0 1 1-2.457 0 .376.376 0 1 0-.752 0 1.229 1.229 0 1 1-2.456 0 .377.377 0 1 0-.753 0 2.007 2.007 0 0 0 1.982 2.027 1.961 1.961 0 0 0 1.6-.84 1.953 1.953 0 0 0 3.21 0 1.953 1.953 0 0 0 3.21 0 1.953 1.953 0 0 0 3.21 0 1.952 1.952 0 0 0 3.209 0 1.952 1.952 0 0 0 3.209 0 1.967 1.967 0 0 0 1.605.84 2.006 2.006 0 0 0 1.981-2.027.38.38 0 0 0-.375-.385zM15.405 8.635a.381.381 0 0 0-.376.385v8.652a.376.376 0 1 0 .751 0V9.02a.38.38 0 0 0-.374-.385zM17.224.013a4.2 4.2 0 0 0-4.174 4.079v2.035h-7.2V4.092a1.438 1.438 0 0 1 1.349-1.667A1.677 1.677 0 0 1 8.86 4.092a1.179 1.179 0 1 0 2.357 0A4.064 4.064 0 0 0 7.2.013a4.145 4.145 0 0 0-4.112 4.079v9.033a.376.376 0 1 0 .752 0V4.092A3.384 3.384 0 0 1 7.2.783a3.3 3.3 0 0 1 3.265 3.309.426.426 0 1 1-.852 0A2.44 2.44 0 0 0 7.2 1.654a2.194 2.194 0 0 0-2.1 2.438v14.986a.376.376 0 1 0 .751 0v-4.2h7.2v2.761a.376.376 0 1 0 .751 0V4.089A3.44 3.44 0 0 1 17.224.78a3.276 3.276 0 0 1 3.234 3.309.426.426 0 1 1-.852 0 2.414 2.414 0 0 0-2.382-2.438 2.24 2.24 0 0 0-2.163 2.438v3.285a.376.376 0 1 0 .752 0V4.089a1.481 1.481 0 0 1 1.411-1.667 1.651 1.651 0 0 1 1.63 1.667 1.179 1.179 0 1 0 2.357 0A4.038 4.038 0 0 0 17.224.013zm-4.174 14.1h-7.2v-3.268h7.2v3.268zm0-4.038h-7.2V6.9h7.2v3.176zm-9.591 4.311a.38.38 0 0 0-.376.384v2.875a.376.376 0 1 0 .752 0V14.77a.38.38 0 0 0-.376-.387z" fill="#fff" fill-rule="evenodd"/></svg>