<svg xmlns="http://www.w3.org/2000/svg" width="23.969" height="17.813"><path data-name="ic_Wi-Fi копия 18" d="M23.838 4.875a16.876 16.876 0 0 0-23.742 0 .434.434 0 0 0 0 .616.44.44 0 0 0 .618 0 16 16 0 0 1 22.506 0 .43.43 0 0 0 .309.128.435.435 0 0 0 .309-.744zM2.665 7.8a.433.433 0 0 0 0 .615.442.442 0 0 0 .618 0 12.342 12.342 0 0 1 17.367 0 .442.442 0 0 0 .618 0 .433.433 0 0 0 0-.615 13.224 13.224 0 0 0-18.603 0zm9.3.162a9.484 9.484 0 0 0-6.732 2.767.433.433 0 0 0 0 .615.438.438 0 0 0 .618 0 8.7 8.7 0 0 1 12.23 0 .436.436 0 0 0 .617-.615 9.483 9.483 0 0 0-6.732-2.763zm-.124 4.15a2.847 2.847 0 1 0 2.863 2.848 2.858 2.858 0 0 0-2.862-2.844zm0 4.824a1.978 1.978 0 1 1 1.989-1.976 1.985 1.985 0 0 1-1.988 1.98z" fill="#3587e0" fill-rule="evenodd"/></svg>