<svg xmlns="http://www.w3.org/2000/svg" width="23.969" height="17.813"><path data-name="ic_Wi-Fi копия 24" d="M23.837 4.875a16.874 16.874 0 0 0-23.742 0 .433.433 0 0 0 0 .615.439.439 0 0 0 .619 0 16 16 0 0 1 22.5 0 .439.439 0 0 0 .618 0 .432.432 0 0 0 .005-.615zM2.665 7.8a.435.435 0 0 0 .307.742.436.436 0 0 0 .31-.127 12.344 12.344 0 0 1 17.367 0 .439.439 0 0 0 .619 0 .435.435 0 0 0 0-.615 13.227 13.227 0 0 0-18.603 0zm9.3.161a9.488 9.488 0 0 0-6.733 2.769.432.432 0 0 0 0 .614.436.436 0 0 0 .618 0 8.694 8.694 0 0 1 12.23 0 .435.435 0 0 0 .617-.614 9.484 9.484 0 0 0-6.731-2.766zm-.125 4.151a2.847 2.847 0 1 0 2.864 2.848 2.858 2.858 0 0 0-2.863-2.845zm0 4.825a1.979 1.979 0 1 1 1.989-1.977 1.985 1.985 0 0 1-1.988 1.98z" fill="#333" fill-rule="evenodd"/></svg>